<svg width="420" height="223" viewBox="0 0 420 223" fill="none" xmlns="http://www.w3.org/2000/svg">
<path d="M64.1437 52.5861V39L65.9909 54.4311L67.8381 57.9534L65.9909 59.9662L69.6853 65.8367H66.9984L67.8381 68.8558L69.6853 70.1977V73.8877L74.0514 79.4228L72.3721 80.7646L69.6853 79.4228V83.616L74.0514 89.3188L85.6384 104.247H82.6157L78.9213 100.389L79.9288 104.918H78.0816L76.2344 101.228V104.247H72.708L72.3721 108.44L79.9288 118.671L83.2874 119.342L89.8365 131.922L86.6459 130.077L85.6384 133.599L82.6157 130.077V134.774L79.593 131.083L78.9213 135.277L74.0514 131.083L78.0816 139.805L84.127 145.34V149.534L94.5385 157.92L88.4931 159.094L79.593 154.733L78.0816 164.462H48.5265V159.094L45.6717 162.784L45 160.772L48.5265 155.907V153.727L45 151.211V134.774L49.702 133.599V130.077L47.8548 128.232L53.3964 130.077L56.9228 122.865H53.3964V119.846H51.885L52.3888 115.149L48.5265 115.652L51.885 109.95L47.351 109.446L49.702 107.266L50.0378 101.228L54.7398 104.918L57.9304 103.24V98.5439H55.2436L55.9153 95.8603L50.0378 96.8667L60.2814 87.4738V79.4228L53.9001 80.7646L61.6248 73.8877V65.8367L58.6021 67.3463L63.1361 61.308V57.9534H60.2814L64.1437 52.5861Z" fill="#2F2F2F"/>
<path d="M413.913 15.5863V2.00024L415.761 17.4314L417.608 20.9537L415.761 22.9664L419.455 28.837H416.768L417.608 31.8561L419.455 33.1979V36.888L423.821 42.423L422.142 43.7649L419.455 42.423V46.6163L423.821 52.3191L435.408 67.247H432.385L428.691 63.3892L429.699 67.9179H427.851L426.004 64.2279V67.247H422.478L422.142 71.4402L429.699 81.6717L433.057 82.3426L439.606 94.9224L436.416 93.0773L435.408 96.5996L432.385 93.0773V97.7738L429.363 94.0837L428.691 98.2769L423.821 94.0837L427.851 102.806L433.897 108.341V112.534L444.308 120.92L438.263 122.095L429.363 117.734L427.851 127.462H398.296V122.095L395.441 125.785L394.77 123.772L398.296 118.908V116.727L394.77 114.211V97.7738L399.472 96.5996V93.0773L397.624 91.2323L403.166 93.0773L406.693 85.865H403.166V82.8458H401.655L402.159 78.1494L398.296 78.6526L401.655 72.9498L397.121 72.4466L399.472 70.2661L399.808 64.2279L404.509 67.9179L407.7 66.2406V61.5442H405.013L405.685 58.8605L399.808 59.8669L410.051 50.4741V42.423L403.67 43.7649L411.394 36.888V28.837L408.372 30.3465L412.906 24.3083V20.9537H410.051L413.913 15.5863Z" fill="#2F2F2F"/>
<path d="M450.577 127.577L417.731 90.4229L407.231 109L469.154 189.769L568.77 197.308C566.526 187.615 561.554 167.8 559.616 166.077C557.677 164.354 490.603 139.692 457.308 127.577H450.577Z" fill="#E9E9E9"/>
<path d="M418.27 89.8848L379.5 108.731L454.347 193.808L535.116 188.962C530.09 188.513 516.162 187.293 500.654 186C481.27 184.385 455.693 149.654 449.231 147.769C444.062 146.262 435.949 133.5 432.539 127.308C432 127.936 430.439 129.462 428.5 130.539C426.077 131.885 414.231 106.039 413.154 103.885C412.293 102.162 416.206 93.8335 418.27 89.8848Z" fill="#969696"/>
<path d="M346.885 85.3463L320.231 58.9617L318.077 66.2309L320.231 188.731L513 194.385C524.039 192.051 537.554 186.631 503.308 183.616C460.5 179.846 420.654 138.923 416.077 134.616C412.416 131.169 368.423 100.333 346.885 85.3463Z" fill="#E9E9E9"/>
<path d="M266.116 93.4233C263.1 95.3617 246.911 99.4361 239.193 101.231L237.039 187.116H429.27L425.5 183.885C411.59 180.205 382.962 172.523 379.731 171.231C376.5 169.939 367.077 154.539 362.77 147C359.18 147 352.162 146.785 352.808 145.923C353.454 145.062 338.539 107.334 331 88.5771C327.411 88.4874 319.908 88.0925 318.616 87.231C317 86.154 321.308 58.154 320.231 58.6925C319.37 59.1233 310.539 69.8207 306.231 75.1156C300.218 76.013 287.762 77.7002 286.039 77.2694C283.885 76.731 269.885 91.0002 266.116 93.4233Z" fill="#969696"/>
<path d="M120.577 63.4998C123.377 57.2537 150.641 28.4101 163.923 14.769L162.308 26.6152L182.769 77.2306H192.462L206.462 114.654L233.116 134.846L236.077 145.615L165.269 111.961C149.205 98.4101 117.777 69.746 120.577 63.4998Z" fill="#969696"/>
<path d="M74.5386 83.1539C71.954 84.2308 47.2565 104.244 35.2309 114.115L36.8463 191.116C107.834 192.282 244.854 193.485 225.039 188.962C205.223 184.439 187.346 166.077 180.885 157.462C180.167 157.641 178.354 157.892 176.846 157.462C175.339 157.031 158.449 133.769 150.193 122.192C147.59 122.103 142.116 121.977 141.039 122.192C139.962 122.408 125.154 88.359 117.885 71.3077C115.551 70.5 110.562 68.8308 109.269 68.6154C107.977 68.4 108.731 59.0129 109.269 54.3462C103.077 61.5257 90.154 76.4231 88.0002 78.577C85.3079 81.2693 77.7694 81.8077 74.5386 83.1539Z" fill="#969696"/>
<path d="M107.116 72.3845L109.539 54.0768L141.846 74.2692C141.667 77.5897 141.685 84.2307 143.193 84.2307C144.7 84.2307 158.898 87.8204 165.808 89.6153C174.064 99.6666 191.546 120.362 195.423 122.731C199.3 125.1 223.244 136.641 234.731 142.115C226.205 135.474 208.454 121.708 205.654 119.769C202.854 117.831 194.436 92.5769 190.577 80.1922C189.859 80.5512 187.239 81.0538 182.5 80.1922C177.762 79.3307 167.064 47.3461 162.308 31.4614C161.051 30.7435 158.539 28.7691 158.539 26.6153C158.539 24.4614 162.128 17.2819 163.923 13.9614L176.039 34.6922C179.18 34.6922 185.623 35.0153 186.269 36.3076C186.916 37.5999 213.462 60.8974 226.654 72.3845C235.628 76.5128 254.008 84.6615 255.731 84.2307C257.885 83.6922 275.923 108.192 277.27 110.346C278.346 112.069 328.154 147.859 352.923 165.538L405.423 182.769L421.039 190.038H180.077L138.346 132.154L107.116 72.3845Z" fill="#E9E9E9"/>
<path d="M25.9232 119.692L28.8847 90.8848C28.8847 91.6925 58.2309 105.692 62.2694 106.769C65.5001 107.631 78.872 120.769 85.154 127.231L87.8463 127.5C97.3591 137.372 117.192 157.277 120.423 157.923C123.654 158.569 144.385 162.5 154.346 164.385C159.193 167.167 170.823 173.862 178.577 178.385C186.331 182.908 205.5 188.526 214.116 190.769H45.8463L25.9232 119.692Z" fill="#E9E9E9"/>
<path d="M-23.0768 129.654C-60.9846 157.869 -106 182.333 -123.769 191.039H67.654C64.9617 191.039 47.1924 165.731 46.654 165.192C46.2232 164.762 39.295 134.321 35.8847 119.154C34.2693 119.513 30.6617 120.015 29.154 119.154C27.6463 118.292 28.5258 99.7693 29.154 90.6155C27.5386 91.8719 14.8309 101.439 -23.0768 129.654Z" fill="#969696"/>
<path d="M14.6923 21.8077V0L17.6539 24.7692L20.6154 30.4231L17.6539 33.6539L23.5769 43.077H19.2692L20.6154 47.9231L23.5769 50.077V56L30.5769 64.8847L27.8846 67.0385L23.5769 64.8847V71.6154L30.5769 80.7693L49.1539 104.731H44.3077L38.3846 98.5385L40 105.808H37.0385L34.0769 99.8847V104.731H28.4231L27.8846 111.462L40 127.885L45.3846 128.962L55.8847 149.154L50.7693 146.192L49.1539 151.846L44.3077 146.192V153.731L39.4616 147.808L38.3846 154.539L30.5769 147.808L37.0385 161.808L46.7308 170.692V177.423L63.4231 190.885L53.7308 192.769L39.4616 185.769L37.0385 201.385H-10.3462V192.769L-14.9231 198.692L-16 195.462L-10.3462 187.654V184.154L-16 180.115V153.731L-8.46155 151.846V146.192L-11.4231 143.231L-2.53847 146.192L3.11538 134.615H-2.53847V129.769H-4.96155L-4.15385 122.231L-10.3462 123.039L-4.96155 113.885L-12.2308 113.077L-8.46155 109.577L-7.92309 99.8847L-0.38462 105.808L4.73077 103.115V95.577H0.423073L1.5 91.2693L-7.92309 92.8847L8.5 77.8077V64.8847L-1.73077 67.0385L10.6539 56V43.077L5.80769 45.5L13.0769 35.8077V30.4231H8.5L14.6923 21.8077Z" fill="#2F2F2F"/>
<path d="M365.385 52.4229V30.6152L368.347 55.3845L371.308 61.0383L368.347 64.2691L374.27 73.6922H369.962L371.308 78.5383L374.27 80.6922V86.6153L381.27 95.4999L378.577 97.6537L374.27 95.4999V102.231L381.27 111.385L399.847 135.346H395.001L389.077 129.154L390.693 136.423H387.731L384.77 130.5V135.346H379.116L378.577 142.077L390.693 158.5L396.077 159.577L406.577 179.769L401.462 176.808L399.847 182.461L395.001 176.808V184.346L390.154 178.423L389.077 185.154L381.27 178.423L387.731 192.423L397.424 201.308V208.038L414.116 221.5L404.424 223.385L390.154 216.385L387.731 232H340.347V223.385L335.77 229.308L334.693 226.077L340.347 218.269V214.769L334.693 210.731V184.346L342.231 182.461V176.808L339.27 173.846L348.154 176.808L353.808 165.231H348.154V160.385H345.731L346.539 152.846L340.347 153.654L345.731 144.5L338.462 143.692L342.231 140.192L342.77 130.5L350.308 136.423L355.424 133.731V126.192H351.116L352.193 121.885L342.77 123.5L359.193 108.423V95.4999L348.962 97.6537L361.347 86.6153V73.6922L356.501 76.1153L363.77 66.4229V61.0383H359.193L365.385 52.4229Z" fill="#2F2F2F"/>
</svg>
