<svg width="1440" height="343" viewBox="0 0 1440 343" fill="none" xmlns="http://www.w3.org/2000/svg">
<path d="M158.553 212.231V187L161.983 215.658L165.414 222.199L161.983 225.937L168.844 236.84H163.854L165.414 242.447L168.844 244.939V251.791L176.953 262.071L173.834 264.563L168.844 262.071V269.858L176.953 280.449L198.471 308.172H192.858L185.997 301.008L187.868 309.418H184.437L181.007 302.566V308.172H174.458L173.834 315.96L187.868 334.961L194.105 336.207L206.268 359.57L200.342 356.143L198.471 362.684L192.858 356.143V364.865L187.244 358.012L185.997 365.799L176.953 358.012L184.437 374.21L195.664 384.489V392.277L215 407.852L203.773 410.032L187.244 401.933L184.437 420H129.549V410.032L124.247 416.885L123 413.147L129.549 404.114V400.064L123 395.392V364.865L131.732 362.684V356.143L128.302 352.717L138.593 356.143L145.142 342.749H138.593V337.142H135.786L136.722 328.42L129.549 329.354L135.786 318.763L127.366 317.829L131.732 313.779L132.356 302.566L141.088 309.418L147.014 306.303V297.582H142.024L143.271 292.598L132.356 294.467L151.38 277.023V262.071L139.529 264.563L153.875 251.791V236.84L148.261 239.643L156.681 228.429V222.199H151.38L158.553 212.231Z" fill="#2F2F2F"/>
<path d="M1337.55 233.231V208L1340.98 236.658L1344.41 243.199L1340.98 246.937L1347.84 257.84H1342.85L1344.41 263.447L1347.84 265.939V272.791L1355.95 283.071L1352.83 285.563L1347.84 283.071V290.858L1355.95 301.449L1377.47 329.172H1371.86L1365 322.008L1366.87 330.418H1363.44L1360.01 323.566V329.172H1353.46L1352.83 336.96L1366.87 355.961L1373.11 357.207L1385.27 380.57L1379.34 377.143L1377.47 383.684L1371.86 377.143V385.865L1366.24 379.012L1365 386.799L1355.95 379.012L1363.44 395.21L1374.66 405.489V413.277L1394 428.852L1382.77 431.032L1366.24 422.933L1363.44 441H1308.55V431.032L1303.25 437.885L1302 434.147L1308.55 425.114V421.064L1302 416.392V385.865L1310.73 383.684V377.143L1307.3 373.717L1317.59 377.143L1324.14 363.749H1317.59V358.142H1314.79L1315.72 349.42L1308.55 350.354L1314.79 339.763L1306.37 338.829L1310.73 334.779L1311.36 323.566L1320.09 330.418L1326.01 327.303V318.582H1321.02L1322.27 313.598L1311.36 315.467L1330.38 298.023V283.071L1318.53 285.563L1332.87 272.791V257.84L1327.26 260.643L1335.68 249.429V243.199H1330.38L1337.55 233.231Z" fill="#2F2F2F"/>
<path d="M1251.5 255.5L1190.5 186.5L1171 221L1286 371L1471 385C1466.83 367 1457.6 330.2 1454 327C1450.4 323.8 1325.83 278 1264 255.5H1251.5Z" fill="#E9E9E9"/>
<path d="M1191.5 185.5L1119.5 220.5L1258.5 378.5L1408.5 369.5C1399.17 368.667 1373.3 366.4 1344.5 364C1308.5 361 1261 296.5 1249 293C1239.4 290.2 1224.33 266.5 1218 255C1217 256.167 1214.1 259 1210.5 261C1206 263.5 1184 215.5 1182 211.5C1180.4 208.3 1187.67 192.833 1191.5 185.5Z" fill="#969696"/>
<path d="M1077.5 184.5L1028 135.5L1024 149L1028 376.5L1386 387C1406.5 382.667 1431.6 372.6 1368 367C1288.5 360 1214.5 284 1206 276C1199.2 269.6 1117.5 212.333 1077.5 184.5Z" fill="#E9E9E9"/>
<path d="M927.5 199.5C921.9 203.1 891.833 210.667 877.5 214L873.5 373.5H1230.5L1223.5 367.5C1197.67 360.667 1144.5 346.4 1138.5 344C1132.5 341.6 1115 313 1107 299C1100.33 299 1087.3 298.6 1088.5 297C1089.7 295.4 1062 225.333 1048 190.5C1041.33 190.333 1027.4 189.6 1025 188C1022 186 1030 134 1028 135C1026.4 135.8 1010 155.667 1002 165.5C990.833 167.167 967.7 170.3 964.5 169.5C960.5 168.5 934.5 195 927.5 199.5Z" fill="#969696"/>
<path d="M601.5 136.5C606.7 124.9 657.333 71.3333 682 46L679 68L717 162H735L761 231.5L810.5 269L816 289L684.5 226.5C654.667 201.333 596.3 148.1 601.5 136.5Z" fill="#969696"/>
<path d="M516 173C511.2 175 465.333 212.167 443 230.5L446 373.5C577.833 375.667 832.3 377.9 795.5 369.5C758.7 361.1 725.5 327 713.5 311C712.167 311.333 708.8 311.8 706 311C703.2 310.2 671.833 267 656.5 245.5C651.667 245.333 641.5 245.1 639.5 245.5C637.5 245.9 610 182.667 596.5 151C592.167 149.5 582.9 146.4 580.5 146C578.1 145.6 579.5 128.167 580.5 119.5C569 132.833 545 160.5 541 164.5C536 169.5 522 170.5 516 173Z" fill="#969696"/>
<path d="M576.5 153L581 119L641 156.5C640.667 162.667 640.7 175 643.5 175C646.3 175 672.667 181.667 685.5 185C700.833 203.667 733.3 242.1 740.5 246.5C747.7 250.9 792.167 272.333 813.5 282.5C797.667 270.167 764.7 244.6 759.5 241C754.3 237.4 738.667 190.5 731.5 167.5C730.167 168.167 725.3 169.1 716.5 167.5C707.7 165.9 687.833 106.5 679 77C676.667 75.6667 672 72 672 68C672 64 678.667 50.6667 682 44.5L704.5 83C710.333 83 722.3 83.6 723.5 86C724.7 88.4 774 131.667 798.5 153C815.167 160.667 849.3 175.8 852.5 175C856.5 174 890 219.5 892.5 223.5C894.5 226.7 987 293.167 1033 326L1130.5 358L1159.5 371.5H712L634.5 264L576.5 153Z" fill="#E9E9E9"/>
<path d="M370 239L375.5 185.5C375.5 187 430 213 437.5 215C443.5 216.6 468.333 241 480 253L485 253.5C502.667 271.833 539.5 308.8 545.5 310C551.5 311.2 590 318.5 608.5 322C617.5 327.167 639.1 339.6 653.5 348C667.9 356.4 703.5 366.833 719.5 371H407L370 239Z" fill="#E9E9E9"/>
<path d="M279 257.5C208.6 309.9 125 355.333 92 371.5H447.5C442.5 371.5 409.5 324.5 408.5 323.5C407.7 322.7 394.833 266.167 388.5 238C385.5 238.667 378.8 239.6 376 238C373.2 236.4 374.833 202 376 185C373 187.333 349.4 205.1 279 257.5Z" fill="#969696"/>
<path d="M52 40.5V0L57.5 46L63 56.5L57.5 62.5L68.5 80H60.5L63 89L68.5 93V104L81.5 120.5L76.5 124.5L68.5 120.5V133L81.5 150L116 194.5H107L96 183L99 196.5H93.5L88 185.5V194.5H77.5L76.5 207L99 237.5L109 239.5L128.5 277L119 271.5L116 282L107 271.5V285.5L98 274.5L96 287L81.5 274.5L93.5 300.5L111.5 317V329.5L142.5 354.5L124.5 358L98 345L93.5 374H5.5V358L-3 369L-5 363L5.5 348.5V342L-5 334.5V285.5L9 282V271.5L3.5 266L20 271.5L30.5 250H20V241H15.5L17 227L5.5 228.5L15.5 211.5L2 210L9 203.5L10 185.5L24 196.5L33.5 191.5V177.5H25.5L27.5 169.5L10 172.5L40.5 144.5V120.5L21.5 124.5L44.5 104V80L35.5 84.5L49 66.5V56.5H40.5L52 40.5Z" fill="#2F2F2F"/>
<path d="M1409 134.5V94L1414.5 140L1420 150.5L1414.5 156.5L1425.5 174H1417.5L1420 183L1425.5 187V198L1438.5 214.5L1433.5 218.5L1425.5 214.5V227L1438.5 244L1473 288.5H1464L1453 277L1456 290.5H1450.5L1445 279.5V288.5H1434.5L1433.5 301L1456 331.5L1466 333.5L1485.5 371L1476 365.5L1473 376L1464 365.5V379.5L1455 368.5L1453 381L1438.5 368.5L1450.5 394.5L1468.5 411V423.5L1499.5 448.5L1481.5 452L1455 439L1450.5 468H1362.5V452L1354 463L1352 457L1362.5 442.5V436L1352 428.5V379.5L1366 376V365.5L1360.5 360L1377 365.5L1387.5 344H1377V335H1372.5L1374 321L1362.5 322.5L1372.5 305.5L1359 304L1366 297.5L1367 279.5L1381 290.5L1390.5 285.5V271.5H1382.5L1384.5 263.5L1367 266.5L1397.5 238.5V214.5L1378.5 218.5L1401.5 198V174L1392.5 178.5L1406 160.5V150.5H1397.5L1409 134.5Z" fill="#2F2F2F"/>
</svg>
