<svg width="80" height="36" viewBox="0 0 80 36" fill="none" xmlns="http://www.w3.org/2000/svg">
<path d="M40.4288 35.1854C40.498 35.3587 40.6579 35.4791 40.8436 35.4975C41.0293 35.516 41.2098 35.4296 41.3118 35.2733C44.6707 30.1269 50.6038 22.2515 57.4722 15.3708C64.3623 8.46826 72.1052 2.65813 79.0823 1.49317C79.3464 1.44908 79.5289 1.2048 79.4963 0.93906C79.4636 0.673323 79.2275 0.480448 78.9606 0.501556C71.4279 1.09731 53.4523 5.67897 40.9691 19.2597C36.6953 12.6089 23.3972 0.5 1 0.5C0.761593 0.5 0.556348 0.668321 0.509675 0.902114C0.463002 1.13591 0.587885 1.37013 0.808017 1.46167C6.0332 3.63452 14.3023 7.9392 22.0906 13.7773C29.8881 19.6223 37.1449 26.961 40.4288 35.1854Z" fill="#3D3D3D" stroke="#3D3D3D" stroke-linejoin="round"/>
</svg>
