<svg version="1.2" xmlns="http://www.w3.org/2000/svg" viewBox="0 0 494 170" width="494" height="170">
	<title>shutterstock_495929200-ai</title>
	<style>
		.s0 { fill: #0f3c73 } 
	</style>
	<g id="Layer 1">
		<g id="&lt;Group&gt;">
			<path id="&lt;Path&gt;" class="s0" d="m494-279v305.5c-4.3 0-8.1 2.8-10.7 4.1c-3.9 1.9-6.4 3.1-10.7 1.2c-5.4-2.5-14.6-8.2-18.1 0c-3.2 7.3 5.6 16 0.2 23.2c-3.4 4.7-9.5 3.4-11.5-1.5c-2.5-6.5 5.5-21.3 1-27q-0.4-0.5-1-0.8c-2.7-2.2-4.5-1.2-5.7 0.8c-2.4 4-2.6 7.2-7.2 9.4c-3.5 1.6-7.3 1.5-10.2-1.2c-4-3.5-2.2-10.1-5.5-13.9c-3.7-4.2-8.7-1.8-12 1.5q-2 2-3.2 4.2c-5.3 10 1.4 22.3 3.2 33.2c1.3 8.2 4.8 15.8 1.3 24.1c-5.4 13-21.3 16.9-29.4 4.2c-3.1-4.6-3.4-10.5-2.9-16.1c1.1-13.5 11-29 6.2-42.8q-0.5-1.4-1.3-2.6c-2.3-3.8-6.4-5.9-10.2-2.1q-0.9 1-1.6 2.1c-5.2 8.7-0.2 24-11.6 27.5c-6.2 1.9-8.5-5.7-13-8.1c-8.1-4.2-8.6 5.4-7.7 11.1c0.3 2.2 1.1 3.9 0.9 6.1c-0.9 8.3-8 12.9-15.2 7.7c-8.2-6-2.1-14.3-3.8-22.3c-2.2-10.9-8.2-6.8-9.9 0.8c-0.9 3.6-2.6 8.8-6.8 9.4c-5.9 0.8-8.2-8.3-14.5-6.5c-7.1 2.1-4.4 14.2-2.8 19.1c2 6.3 4.1 17.5 2 24c-2.3 6.9-11.5 9.6-15.9 3.5c-4.4-6.1-4.1-17.2-1.8-24c1.5-4.6 4.5-14.3-2-16.4c-4.7-1.6-9.9 3.2-11.9 7c-9 16.7-0.9 34 2.8 51c2.6 11.7 7.7 33.2-7 39.7c-12.4 5.4-25.1-9.4-25.4-20.9c-0.2-10.9 5.8-20.5 7-31c1.1-10.2 2.1-20.1-3.2-29.3c-3-5.1-14.9-17.6-16.8-5.7c-0.5 3.4 1 8.6-0.9 11.7c-2.7 4.2-8.5 2.9-11.3-0.6c-3.8-4.7 0.1-13-4.2-17.6c-7.4-7.9-11 4.4-10 10.1c2 12.7 7 24.1 3.4 37c-4.2 14.9-19.3 12-24.6-1c-6.2-15.2 5.8-30.3 1.7-45.6c-1.7-6.4-9.8-13.1-15.4-6.1c-2.2 2.9-1.8 7.6-4.3 10.7c-5.1 6.3-14.1 5.1-15.6-3.6c-0.7-4.3 0.5-7-4.5-8.1c-5.3-1.1-6.8 2.1-10.5 4.2c-9.6 5.4-10.2-8.9-18.1-9.4c-10.7-0.6-4.9 18.6-5.3 23.8c-1 10.6-10.7 16.1-19.8 9.2c-7.1-5.4-5-14.8-3.9-22.2c1.3-9.4-8.9-19.9-16-10c-5.4 7.6-2.7 21-1 29.4c2.2 10.6 5.8 21.9-4.1 29.5c-10.2 7.9-22 1.1-24.5-10.9c-3.2-15.7 7.9-30.2 4.6-46c-1.1-5.3-3.3-12.5-5.9-17.4c-1.4-2.8-4-5.7-6.7-7.2c-2-1.2-5.3-2.6-11.2-2.6v-305.5z"/>
			<g id="&lt;Group&gt;">
				<path id="&lt;Mesh&gt;" fill-rule="evenodd" class="s0" d="m452.7 30.7c0.2-1.2 0.8-2.5 1.4-3.5c0.6-0.9 1.6-1.9 2.5-2.5c3.9-2.9 8.5-0.9 11.7 1.9c1.6 1.4 3.1 2.9 5.2 3.6c2.2 0.7 4.9 0.7 7-0.4c1.9-1 3.2-2.8 4.7-4.2c2.3-2.2 5.6-3.9 8.8-3.9q0 1.2 0 2.4q0 1.2 0 2.4c-4.3 0-8.1 2.8-10.7 4.1c-3.9 1.9-6.4 3.1-10.7 1.2c-5.4-2.5-14.6-8.2-18.1 0c-0.9 2-0.9 4-0.5 6.2c1 5.7 4.6 11.8 0.7 17c-1.7 2.3-4 3.1-6.1 2.9c-2.3-0.3-4.4-1.9-5.4-4.4c-0.9-2.4-0.4-5.9 0.4-9.7c1.3-6.4 3.4-13.7 0.6-17.3q-0.4-0.5-1-0.8c-2.7-2.2-4.5-1.2-5.7 0.8c-2.4 4-2.6 7.2-7.2 9.4c-1.9 0.8-3.9 1.2-5.7 1c-1.6-0.3-3.2-0.9-4.5-2.2c-4-3.6-2.2-10.1-5.5-13.9c-2-2.3-4.5-2.6-6.8-1.8c-1.9 0.6-3.7 1.8-5.2 3.3q-2 2-3.2 4.2c-5.3 10 1.4 22.3 3.2 33.2c1.3 8.2 4.8 15.8 1.3 24.1c-3.5 8.4-11.4 13-18.7 11.8c-4-0.7-7.9-3.1-10.7-7.6c-3.1-4.6-3.4-10.5-2.9-16.1c1.1-13.5 11-29 6.2-42.8q-0.5-1.4-1.3-2.6c-0.9-1.5-2.2-2.8-3.6-3.5c-2-1-4.4-0.9-6.6 1.4q-0.9 1-1.6 2.1c-5.2 8.6-0.2 23.9-11.4 27.5q-0.1 0-0.2 0c-6.2 1.9-8.5-5.7-13-8.1c-8.1-4.2-8.6 5.4-7.7 11.1c0.3 2.2 1.1 3.9 0.9 6.1c-0.7 6.3-4.8 10.4-9.9 9.9c-1.7-0.2-3.5-0.9-5.3-2.2c-8.2-6-2.1-14.3-3.8-22.3c-2.2-10.9-8.2-6.8-9.9 0.8c-0.9 3.6-2.6 8.8-6.8 9.4q-0.9 0.1-1.7-0.1c-4.7-0.8-7.1-8.1-12.8-6.4c-7.1 2.1-4.4 14.2-2.8 19.1c2 6.3 4.1 17.5 2 24c-1.8 5.3-7.5 8.1-12.1 6.4c-1.4-0.5-2.8-1.5-3.8-2.9c-4.4-6.1-4.1-17.2-1.8-24c1.5-4.6 4.5-14.3-2-16.4c-1.4-0.5-2.9-0.4-4.2 0.1c-3.3 1.1-6.3 4.2-7.7 6.9c-9 16.7-0.9 34 2.8 51c2.6 11.7 7.7 33.2-7 39.7c-2.5 1.1-5.1 1.3-7.5 0.9c-9.6-1.4-17.7-12.6-17.9-21.8c-0.2-10.9 5.8-20.5 7-31c1.1-10.2 2.1-20.1-3.2-29.3c-1.6-2.7-5.6-7.3-9.3-9.5c-3.4-2-6.6-1.9-7.5 3.8c-0.5 3.4 1 8.6-0.9 11.7c-1.3 1.9-3.6 2.9-6 3.1c-2.2 0.1-4.5-0.6-6-2c-5.7-5.4 1.6-13.9-3.5-19.3c-1-1-1.9-1.7-2.7-2.1c-5.6-2.6-8.2 7.3-7.3 12.2c2 12.7 7 24.1 3.4 37c-1.7 6-5.2 9.1-9.1 9.9c-5.7 1.1-12.4-3.1-15.5-10.9c-6.2-15.2 5.8-30.3 1.7-45.6c-1.3-4.7-6.1-9.7-10.8-9c-1.6 0.2-3.2 1.1-4.6 2.9c-2.2 2.9-1.8 7.6-4.3 10.7c-1.8 2.3-4.2 3.6-6.6 3.9c-4.1 0.5-8.1-2-9-7.5c-0.7-4.3 0.5-7-4.5-8.1q-0.7-0.1-1.3-0.2c-4.2-0.4-5.8 2.5-9.2 4.4c-9.6 5.4-10.2-8.9-18.1-9.4q-0.2 0-0.5 0c-10 0-4.4 18.7-4.8 23.8c-0.7 7.6-5.9 12.5-12.1 12.2c-2.5-0.1-5.1-1.1-7.7-3c-7.1-5.4-5-14.8-3.9-22.2c0.9-7-4.4-14.6-10.1-13.9c-2 0.2-4 1.4-5.9 3.9c-5.4 7.6-2.7 21-1 29.4c2.2 10.6 5.8 21.9-4.1 29.5c-2.6 2-5.2 3-7.8 3.3c-7.7 0.9-14.8-5.2-16.7-14.2c-3.2-15.7 7.9-30.2 4.6-46c-1.1-5.3-3.3-12.5-5.9-17.4c-1.4-2.8-4-5.7-6.7-7.2c-2-1.2-5.3-2.6-11.2-2.6q0-1.2 0-2.5q0-1.2 0-2.4c0-0.3 5.9 1 6.4 1.1c3.6 1 6.8 3 9.6 5.4c8.8 7.7 11.5 21.2 10.9 32.4c-0.6 11.5-7.4 22.4-6.1 34.1c0.5 4.4 2.1 8.7 5.8 11.4c2.8 2.2 6 2.9 9 2.5c2.6-0.4 5.2-1.5 7.6-3.2c3.4-2.5 4.1-7 4.4-10.9c0.3-3.4-0.3-6.5-1.1-9.9q-0.3-1.5-0.6-3q-1-4.8-2-9.5c-0.8-3.4-1.6-7.3-1.5-10.8c0.3-7.2 2.9-16.7 11-18.7q0.6-0.1 1.2-0.2c3.5-0.4 7.7 1 9.8 3.8c2.2 3.1 2.5 7.4 2.6 11.1c0.1 1.5 0.1 3 0 4.5c-0.2 4.8-1.7 9-0.4 13.9c1 4 3.6 7 7.9 7.3q1 0.1 1.9 0.1c4.8-0.1 8.5-2.3 9.8-7.5c1.6-6.5-2.4-12.9-1.6-19.5c0.4-3.7 2-7.6 5.3-9.6c1-0.6 2.1-1 3.2-1.2c2.8-0.5 5.7 0.3 7.5 2.5c2.7 3.3 1.4 11.8 7.3 11.8c3.8 0.1 5.2-4.3 7.4-6.5c1.5-1.4 3.9-2.5 6.2-2.7c2.1-0.1 4.1 0.5 5.3 2.5c1.2 1.8 2 3.8 2.1 6.1c0.1 2.1-0.3 4.4 1.1 6.3c1.2 1.6 3.6 2.9 5.9 2.9c0.9 0 1.8-0.2 2.6-0.8c2.5-1.6 3.5-5.4 4.1-8.1c1-3.8 2-7.9 5.7-10q1.4-0.8 3-1c2.8-0.4 5.7 0.6 7.8 2.4c4.4 3.8 4.8 10.4 5.7 15.8c1.1 6.2-0.6 12.8-2 18.7c-0.9 3.9-1.9 7.8-1.9 11.8c0 3.6 0.7 6.6 2.2 10c0.6 1.4 1.5 2.9 2.6 4c2.5 2.8 6.6 3.5 10.1 2.6q0.6-0.2 1.2-0.4c4.5-1.7 6.5-7.4 6.9-11.7c0.6-6.3-0.7-12.2-2.1-18.3c-1.1-4.6-3-8.8-3.4-13.6c-0.2-2 0-4.2 0.3-6.2c0.9-5.6 5.4-9.3 9.8-8.5c2 0.4 3.9 1.6 5.5 3.9c2.3 3.4 2.2 8 1.7 11.8c-0.6 3.7-1.7 7.9 2.2 10.1c1 0.5 2.2 0.8 3.5 0.8c1.8 0 3.5-0.7 4.4-2.3c1.7-2.9 0-7.1-0.1-10.1c-0.1-4.8 3.8-11.2 9.4-9.7q0.5 0.1 1 0.3c4.4 1.9 7 7.5 9.2 11.5c2.6 4.9 4.7 10.3 5.3 15.9c0.7 5.8 0.1 11.6-0.5 17.4c-0.6 4.8-2.1 9.3-3.5 13.8c-2 6.1-3.3 12.5-2.2 19c1.3 7.4 7 12.9 14.3 13.9q1.2 0.2 2.3 0.2c4.2 0 7.5-2.3 9.5-5.9c4.7-8.3 3.3-18.8 1.3-27.7q-0.1-0.4-0.2-0.9c-0.7-3.4-1.7-6.9-2.6-10.3c-1.9-7-3.8-14-4.3-21.3c-0.2-3.5 0-7.1 0.7-10.6c0.7-4.1 2-8.3 3.4-12.2c0.8-2.1 2.5-4.3 4-5.9c1.4-1.6 3.4-3 5.6-3.6c1.8-0.4 3.7-0.4 5.5 0.5c4.4 2.2 4.9 8.7 4.6 13c-0.2 3.1-1.1 6.1-2 9.1c-2.2 6.5-2.3 16.9 1.5 22.1c0.7 1 1.4 1.6 2.2 2c1 0.5 2 0.6 2.8 0.6c3.2 0 6.3-2.3 7.4-5.5c1.8-5.5 0.2-15.7-2-22.8c-0.9-3-1.5-6-1.7-9.1c-0.2-2.6-0.6-5.6 0.3-8.1c1.4-3.9 3.5-6.9 8-7.1c2.9-0.1 4.6 1.1 6 3.5c1.2 2.2 2.3 5 4.9 5.6q0.4 0 0.9 0.1q0.3-0.1 0.5-0.1c4-0.6 4.5-6 4.9-9c0.7-5 3.3-10.7 9.3-10.2c3 0.3 3.9 3.1 4.3 5.7c0.8 4.1 0.9 8.4 0.4 12.6c-0.3 3.1-1.1 6.5 0.5 9.4c1.3 2.4 3.8 3.8 6.4 3.9c1.2 0.1 2.4-0.1 3.5-0.6c3.3-1.6 5.2-5.3 4.3-9c-0.2-0.7-0.4-1.4-0.5-2.2c-0.6-3.7-0.6-8.3 0.8-11.9c1.5-4 6.3-5.8 10.2-4.3c2.6 1 4 4 5.1 6.4c1.2 2.3 1.4 4.8 4.7 4.8q0.7 0 1.3-0.2q0.4-0.1 0.8-0.2c4.8-1.9 5.6-6.5 6.5-13.8c0.8-6.9 1.8-16.7 9.7-19c1.3-0.4 2.5-0.4 3.5-0.1c5.8 1.4 7.7 11.4 8 16.3c0.5 7.4-1.8 14.7-3.9 21.8c-1.7 5.3-3.2 10.2-3.6 15c-0.5 6.4 0.3 9.3 2.6 12.9c2.3 3.6 5.4 5.8 9 6.5q1.2 0.3 2.4 0.3c4.6 0 8.7-2.2 11.4-5.8c5.6-7.6 3.1-17.6 1.7-26c-0.5-3-1.3-6-2.2-9.3c-1.2-4.1-2.4-8.2-2.8-12.5c-0.8-7.3 0.6-14.5 5.6-20c0.9-1 2-2 3.2-2.7c1.1-0.6 2.3-1.1 3.6-1.3q0.8-0.1 1.7-0.1c2.1 0 3.9 0.5 5.7 1.5c1.6 1 2.3 3.4 2.6 5.2c0.4 2.6 0.7 5.1 1.2 7.6c0.3 1.8 0.8 3.6 2.2 4.9q1.4 1.3 3.2 1.6c3.7 0.6 7.2-1.7 8.8-4.8c1.6-3.2 2-7.8 5.6-9.4c1.9-0.8 3.5 0.3 5 1.6c1.3 1.2 1.9 2.9 2.3 4.6c0.8 4 0.4 8.2-0.4 12.1c-0.4 1.7-0.7 3.4-1 5q-0.1 1.2-0.2 2.4c-0.1 0.8-0.4 1.6-0.4 2.5c-0.1 2.2 1.5 5.3 4.1 5.7c2 0.3 4.3-0.5 5.3-2.3c0.8-1.5 0.8-3.4 0.5-5c-0.6-4.5-3.2-9-2.3-13.7c0.2-1 0.6-1.9 0.8-2.9zm-416.8 83.2q-0.1-1.4-0.1-2.7q0 1.3 0.1 2.7zm180.2-54.3q-0.1 1.4-0.2 2.9q-0.1 1.4-0.3 2.9q0.2-1.5 0.3-2.9q0.1-1.5 0.2-2.9zm-27.6-4.8q0.1 1.5 0.3 2.9q0.1 1.4 0.2 2.9q-0.1-1.5-0.2-2.9q-0.2-1.4-0.3-2.9z"/>
			</g>
			<path id="&lt;Path&gt;" class="s0" d="m29.3 66.4c0 4.1 0.3 8.2-0.2 12.2c-0.3 2.5-1.2 4.5-1 7c0.3 2.8 1.1 5.4 1.9 8c0.8 2.9 2 4.3 4.4 5.9c2.9 2 6.6 2.6 10 1.2c-3.8 6-12.8 9.1-18.1 3c-1-1.1-1.8-2.2-2.5-3.5c-4.9-10 1.5-18.6 3.1-28.4c0.5-2.8 1.8-5.5 1.6-8.4z"/>
			<path id="&lt;Path&gt;" class="s0" d="m68.8 58.2c-0.1 5.9 1.6 12 6.3 16c2.2 1.8 6.6 3.3 9.2 1.6c-1.9 6.4-9.6 7.8-14 3.6c-4.9-4.9-2.7-12.4-1.8-18.7q0.2-1.3 0.3-2.5z"/>
			<path id="&lt;Path&gt;" class="s0" d="m105.9 52.5c1 0.9 2.4 2.4 3.7 2.7c0.9 0.2 1.7-0.3 2.6-0.4c-1 0.7-1.4 2.1-2.5 2.8c-3.7 2.4-6.1-3.2-6.6-6c-0.2-1.3-0.6-2.4-1.2-3.6q0.2 0.4 0.5 0.7q1.6 2 3.5 3.8z"/>
			<path id="&lt;Path&gt;" class="s0" d="m130 55.6c0.7 0.4 1.1 1.1 1.5 1.7c1 1.1 1.4 2.5 2.2 3.6c0.7 1 2.3 2 3.5 2.2c0.6 0.1 1.4 0.2 2 0c0.7-0.2 1.1-0.9 1.7-1.2c-0.7 0.8-0.9 2-1.6 2.9c-0.8 0.9-1.9 1.9-3.1 2.1c-1.7 0.2-3.7-0.5-4.7-1.8c-0.5-0.6-1.1-1.3-1.4-2.1c-0.2-0.8-0.2-1.6-0.3-2.4c-0.1-1.2-0.1-2.5-0.4-3.8c-0.1-0.8-0.5-1.7-1.1-2.4c0.5 0.6 1.1 0.8 1.7 1.2z"/>
			<path id="&lt;Path&gt;" class="s0" d="m165.7 77.1c0.4 3.5 0.5 7 0.7 10.4c0.1 2.7-0.1 5.3 0.2 7.9c0.6 5.5 5.8 10.4 11.5 8.9c1.7-0.4 3.2-1.7 4.6-2.7c-0.4 3.7-3.4 8.1-6.5 10c-2 1.2-4.6 1.2-6.7 0.4c-1.4-0.5-2.8-1.6-3.7-2.7c-4-4.7-4.2-12.4-3.2-18.1c0.3-1.8 1.1-3.4 1.4-5.3c0.2-1.1 0.5-2.2 0.7-3.3c0.1-0.9 0.5-1.9 0.7-2.8c0.3-0.9 0.4-1.8 0.3-2.7z"/>
			<path id="&lt;Path&gt;" class="s0" d="m197.4 69.3c0.3 1.6 0.7 3.2 1.2 4.7c0.3 0.9 1 2 1.7 2.6c1.8 1.3 3.6 0.6 5.3-0.3c-0.6 1.4-0.8 3-2.2 3.8c-1.2 0.7-2.7 0.5-3.9 0.1c-2.9-0.8-3.9-3.5-3.8-6.2c0.1-1.7 0.4-3.4 0.7-5.1c0.2-1.1 0.8-2.8 0.5-3.9c0.4 1.4 0.3 2.9 0.5 4.3z"/>
			<path id="&lt;Path&gt;" class="s0" d="m232 118.5c0.6 5.9 2.4 12 4.7 17.5c1.6 3.5 11 5.9 14 3.3c-0.2 0.2-0.3 2.2-0.5 2.7c-1.2 2.9-5.5 6.6-8.7 7c-1.4 0.1-3 0-4.4-0.4c-1.7-0.4-3.7-1.3-5-2.5c-5.8-5-7.1-11.8-6.4-19.2c0.3-3.4 1.3-7.6 2.9-10.7c1.4-2.8 1.9-5.3 2.4-8.4c0.4-2.3 0.3-4.5 0.8-6.7c1.1 5.6-0.3 11.7 0.2 17.4z"/>
			<path id="&lt;Path&gt;" class="s0" d="m269 82.7c0.4 2.5 0.3 5.3 1.7 7.5c1.2 1.9 3.8 2.4 5.9 2.6c1 0 2.5 0.2 3.3-0.6c-0.6 1.7-1.6 3.9-2.8 5.2c-0.5 0.6-1.1 0.9-1.7 1.3c-1.6 0.8-3.5 0.3-5.1-0.3c-1.2-0.6-2-1.8-2.6-3c-1.1-2.4-1.6-4.9-1.7-7.6c-0.1-1.3-0.2-2.5 0-3.8q0.4-2.3 0.9-4.5c0.3-1.3 0.7-2.5 1-3.8c0.2-1.3 0.8-2.6 0.8-3.9c0 3.6-0.2 7.3 0.3 10.9z"/>
			<path id="&lt;Path&gt;" class="s0" d="m294.9 51.7c0.9 0.3 1.8 0.8 2.7 0.7c0.6 0 1.1-0.2 1.6-0.4c0.5-0.2 0.7-0.5 1.1-0.8c-0.2 0.1-0.1 1.6-0.2 2c-0.3 0.7-0.7 1.3-1.2 1.7c-0.9 0.7-1.7 0.8-2.8 0.6c-0.9-0.1-1.8-0.5-2.4-1.2c-0.8-1-1-2.2-1.5-3.3c-0.6-1.1-1.4-2.1-2.2-3c1.7 1.2 3 2.8 4.9 3.7z"/>
			<path id="&lt;Path&gt;" class="s0" d="m318.5 50.5c0.3 1.1 0.4 2.2 0.7 3.3c0.5 1.6 0.9 3.3 1.6 4.8c1.7 3.5 5.7 5 9.3 3.4c-0.1 2.1-1.6 4.4-3.3 5.5c-1.7 1.1-4 0.7-5.7 0.1c-3.3-1.2-4.4-4.8-4.4-7.9c0-1.2 0.1-2.3 0.2-3.5c0.2-1.3 0.3-2.7 0.4-4c0.1-1.4 0.5-2.9 0.4-4.3c0.1 0.9 0.5 1.7 0.8 2.6z"/>
			<path id="&lt;Path&gt;" class="s0" d="m345.8 43.6c0.5 0.4 0.9 0.9 1.4 1.4c0.8 0.8 1.6 1.6 2.7 2.2c1.1 0.6 2.4 0.7 3.7 0.7c0.8 0 1.6-0.1 2.3-0.4c0.4-0.3 0.9-0.8 1.5-0.9c-0.7 1.5-1.7 3.5-3.4 4.1c-0.6 0.3-1.6 0.5-2.4 0.5c-0.9 0.1-1.8-0.2-2.4-0.9c-0.4-0.4-0.7-0.9-0.9-1.3c-0.4-0.6-0.5-1.3-0.8-1.9c-0.3-0.7-0.6-1.4-1-2q-0.5-0.7-1-1.4c-0.3-0.4-0.7-0.7-0.9-1.1q0 0 0.1 0c0.3 0.5 0.7 0.6 1.1 1z"/>
			<path id="&lt;Path&gt;" class="s0" d="m378.9 62c0 4 1 8.2 3 11.7c2.3 4.1 6.7 6.4 11 8.1c1.2 0.4 2.5 0.8 3.8 0.6c0.9-0.1 1.7-0.8 2.5-1c-0.2 2-2.1 4.8-3.5 6.1c-1.5 1.4-3.4 2.2-5.4 2.6c-4.2 0.8-8.3-0.6-11.3-3.6c-5.9-5.8-4.6-15.1-2.5-22.2c0.9-3.1 2-6.4 2.8-9.6c0.2 2.3-0.5 4.9-0.4 7.3z"/>
			<path id="&lt;Path&gt;" class="s0" d="m420.8 19.2c0.7 0.6 1.2 1.3 1.7 2c0.8 0.8 1.5 1.6 2.1 2.5c0.6 0.8 1 1.7 1.7 2.5c1.4 1.4 3.6 2.5 5.5 2.2c-0.9 1.9-2 3.9-4.2 4.5c-1.8 0.5-4.6-0.1-5.9-1.7c-1.3-1.8-1.2-4.2-1.6-6.2c-0.3-2.5-0.8-4.9-1.7-7.2c0.8 0.4 1.7 0.8 2.4 1.4z"/>
			<path id="&lt;Path&gt;" class="s0" d="m448.9 42.7c0.3 2 1.8 4.5 3.2 6.1c0.4 0.4 1.1 0.9 1.2 1.3c0.4 1.9-2.8 4-4.8 3.5c-6.8-1.7-1.1-10.4-1.1-13.8z"/>
			<path id="&lt;Path&gt;" class="s0" d="m467.5 23.5c2.4 1 4.8 1.6 7.4 1.9c2.1 0.3 4.9 0.5 6.8 1.5c0.1 2.3-5.3 2.3-6.7 2.1c-2.6-0.4-6.1-3.2-7.5-5.5z"/>
			<path id="&lt;Path&gt;" class="s0" d="m25.1 84.3c-0.3 2.5-0.2 4.8 0.2 7.4c0.6 4.6 2.6 8.8 6.9 11.1c1.3 0.6 2.5 0.6 4 0.7c-1.1 1.8-4.2 1.4-5.8 0.6c-2-0.9-3.4-2.9-4.5-4.8c-2.7-4.7-2.1-9.8-0.8-14.9q0-0.1 0-0.1z"/>
			<path id="&lt;Path&gt;" class="s0" d="m68.9 72.8c1.3 2.7 2.9 4.9 5.8 5.8c0.7 0.2 1.3 0.3 2 0.6c0.4 0.2 0.8 0.3 1.3 0.4c-1.6 0.9-4.7 0.2-6.2-0.7c-2.5-1.6-3.6-6-3-8.8z"/>
			<path id="&lt;Path&gt;" class="s0" d="m104.4 53.2c0.4 1.5 3.9 6.2 5.2 3c-1.6 0.4-4.1-1.5-5-2.7z"/>
			<path id="&lt;Path&gt;" class="s0" d="m130.7 59.7c0.5 1.1 1.2 2.1 1.9 3.2c0.8 1.3 3.4 2.2 4.9 1.5c-1 1-3.1 1.3-4.3 0.6c-1.9-1.1-1.8-2.9-2.3-4.6q-0.1-0.4-0.2-0.7z"/>
			<path id="&lt;Path&gt;" class="s0" d="m163.5 90.4c0 2.1 0.1 4.1 0.2 6.2q0.2 1.8 0.6 3.5c0.9 4.2 3 8.7 7.7 9.5c1 0.2 1.8-0.1 2.8-0.2c1.2-0.1 2.4-0.4 3.3-1.2c-1.4 1.2-2.9 2.7-4.9 2.9c-2.6 0.3-5.1-0.7-6.7-2.8c-0.8-1.1-1.5-2.3-1.9-3.6c-0.8-2.2-1.1-4.6-1.3-6.9c-0.2-1.2-0.2-2.4-0.2-3.6c0.1-1 0.3-2.1 0.4-3.2q0-0.3 0-0.6z"/>
			<path id="&lt;Path&gt;" class="s0" d="m197.1 74.1c0.3 1.2 1.1 2.9 2.1 3.6c1.2 0.9 3.1 1.4 4.5 0.8c-1 0.6-2.1 1.3-3.2 1.1c-0.7-0.2-1.5-0.5-2.1-0.9c-0.9-0.7-1.4-1.7-1.7-2.8c-0.1-0.6-0.1-1.2 0-1.8c0-0.4 0.3-0.9 0-1.4c0.2 0.5 0.2 1 0.4 1.4z"/>
			<path id="&lt;Path&gt;" class="s0" d="m228.3 122.3c-0.5 2.2-0.5 4.8-0.3 7c0.3 6.3 2.5 14.6 9.5 16.4c1.7 0.4 3.4 0.7 5.1 0.5c0.8-0.2 1.7-0.3 2.5-0.6c0.5-0.1 1-0.6 1.5-0.6c-1.6 1.2-2.9 2.3-4.9 2.7c-4.2 0.8-8.2-1.2-10.6-4.6c-2.7-3.7-4-8.5-4-13.1c0-3 0-6.5 1.5-9.2c0 0.6-0.2 1.1-0.3 1.5z"/>
			<path id="&lt;Path&gt;" class="s0" d="m267.2 83.7q-0.1 0.8 0 1.6c0.1 2.9 1 6.8 3.2 9c0.9 0.8 1.9 1.5 3 1.8c1 0.3 2.6 0.3 3.5-0.3c-0.2 0.3-0.5 0.5-0.7 0.7c-1.9 1.7-5.6 1.2-7.1-0.8c-2.1-3-2.2-7.3-2.3-10.7c0-0.9 0.3-1.7 0.3-2.6c0 0.4 0.1 0.9 0.1 1.3z"/>
			<path id="&lt;Path&gt;" class="s0" d="m293.3 52.2c0.9 0.7 1.7 1.5 2.8 1.8c0.8 0.1 2.1 0.2 2.8-0.2c-0.8 1.2-2.3 1.4-3.6 0.9c-1.2-0.5-1.8-1.7-2.3-2.8z"/>
			<path id="&lt;Path&gt;" class="s0" d="m317.8 55.3c0.9 2.7 0.8 5.5 2.5 7.8c0.8 1 1.9 1.8 3.1 2.2c0.9 0.3 2.7 0.7 3.6 0.2c-1.1 1-2.2 1.7-3.7 1.5c-1.1-0.1-2.3-0.6-3.1-1.3c-0.8-0.8-1.6-1.8-2-2.9c-0.6-1.6-0.3-3.4-0.3-5.1z"/>
			<path id="&lt;Path&gt;" class="s0" d="m348.7 47.3c0.6 0.5 1.1 1.3 1.9 1.7c0.3 0.2 0.8 0.4 1.2 0.5c0.9 0.3 1.9 0.1 2.9-0.1c-1.1 0.8-2.4 0.9-3.7 0.6c-1.8-0.3-2.2-1.6-2.8-3.2z"/>
			<path id="&lt;Path&gt;" class="s0" d="m381.4 83.5c1.4 1.5 3.1 2.6 5.1 3c0.8 0.2 6.1 1 6.5 0.3c-0.8 1.6-4 2-5.6 2.1c-7.4 0.1-10.6-7.5-11.2-13.8c-0.1-1-0.2-2.1-0.2-3.1c0.1-0.9 0.5-1.8 0.5-2.7q0 1.4 0.2 2.9c0.6 3.9 1.9 8.4 4.7 11.3z"/>
			<path id="&lt;Path&gt;" class="s0" d="m420.3 21.8c-0.1 0.2 0.2 0.7 0.3 1c1.1 2.2 1.8 4.3 3.3 6.3c0.4 0.4 0.7 0.7 1.2 1c1.4 1.1 2.9 0.8 4.5 0.6q-0.2 0.3-0.4 0.5c-2.1 1.8-4.8 1-6.3-1c-1.7-2.3-2-5.6-2.6-8.4q0 0 0 0z"/>
			<path id="&lt;Path&gt;" class="s0" d="m447.5 50.4c0.8 1.2 2.7 1.6 4.1 1.4c-0.5 0.6-1.4 0.9-2.1 1c-1.2 0.1-2.1-0.8-2.7-1.5c-1.1-1.4-1-3.8-0.3-5.3c0 1.5 0 3.1 1 4.4z"/>
			<path id="&lt;Path&gt;" class="s0" d="m469.8 25c0 0.5 2.2 1.3 2.6 1.4q1.7 0.6 3.4 1c1.1 0.2 3 0.8 4.1 0.3c-1.1 0.8-3.4 0.5-4.6 0.3c-1.6-0.2-3.1-0.9-4.3-1.8c-0.4-0.4-1.1-0.5-1.2-1.1z"/>
			<path id="&lt;Path&gt;" class="s0" d="m40.7 58.8q0-0.5 0-1.4c0-0.4 0-0.9 0.1-1.6c0.1-0.6 0.1-1.3 0.3-2c0.2-0.8 0.3-1.6 0.6-2.4c0.4-0.8 0.6-1.7 1.1-2.6q0.3-0.6 0.7-1.3q0.4-0.6 0.8-1.2c0.5-0.9 1.2-1.7 1.8-2.5c0.7-0.7 1.4-1.5 2.3-2.1c0.7-0.7 1.6-1.1 2.5-1.6c1-0.3 1.9-0.6 2.7-0.7c0.9-0.2 1.8-0.1 2.5-0.2c0.8 0.1 1.5 0.1 2.1 0.3c0.6 0.2 1.1 0.2 1.6 0.4q0.8 0.4 1.2 0.6q-0.5-0.1-1.3-0.4c-0.4-0.1-1-0.1-1.6-0.3c-0.5-0.1-1.2 0-2 0c-0.7 0.1-1.5 0.1-2.3 0.3c-0.9 0.2-1.7 0.5-2.5 0.8c-0.8 0.4-1.6 0.8-2.4 1.5c-0.7 0.6-1.4 1.4-2 2.1c-0.7 0.7-1.4 1.4-1.9 2.3q-0.4 0.6-0.8 1.2q-0.3 0.6-0.6 1.2c-0.5 0.8-0.8 1.7-1.2 2.4c-0.3 0.8-0.5 1.6-0.8 2.3c-0.2 0.7-0.3 1.4-0.4 2c-0.2 0.6-0.2 1.1-0.3 1.5q-0.1 0.9-0.2 1.4z"/>
			<path id="&lt;Path&gt;" class="s0" d="m83.6 51.2q0.1-0.3 0.2-0.7q0.2-0.3 0.3-0.8c0.2-0.3 0.3-0.7 0.5-1q0.3-0.5 0.7-1.1c0.3-0.4 0.6-0.8 0.9-1.2q0.6-0.5 1.2-1.1c0.4-0.3 0.8-0.6 1.3-1c0.4-0.2 0.9-0.6 1.3-0.8c0.5-0.3 1.1-0.5 1.6-0.6q0.7-0.2 1.4-0.3q0.8 0 1.4 0.1c0.8 0 1.4 0.2 1.9 0.2q0.5 0.1 0.7 0.2q-0.2 0-0.7 0c-0.5 0.1-1.1 0.1-1.9 0.1q-0.6 0-1.3 0.2c-0.4 0-0.8 0.2-1.3 0.3c-0.4 0.2-0.8 0.3-1.3 0.6c-0.5 0.2-0.8 0.5-1.3 0.9c-0.4 0.3-0.8 0.5-1.2 0.8q-0.6 0.6-1.1 1c-0.8 0.7-1.3 1.4-1.8 2c-0.3 0.3-0.4 0.6-0.6 0.9q-0.3 0.4-0.5 0.7q-0.2 0.4-0.4 0.6z"/>
			<path id="&lt;Path&gt;" class="s0" d="m116.4 50.3q0.1-0.2 0.2-0.5c0.1-0.1 0.3-0.2 0.4-0.4q0.3-0.2 0.7-0.5c0.9-0.6 2.3-1 3.8-1.1c0.4 0 0.7 0 1.1 0.1c0.4 0 0.8 0.1 1.1 0.3c0.7 0.2 1.2 0.6 1.6 1c0.4 0.3 0.7 0.7 1 0.9q0.2 0.2 0.3 0.3q-0.7-0.3-1.6-0.8c-0.4-0.2-1-0.4-1.6-0.6q-0.4-0.2-0.9-0.2c-0.2-0.1-0.7 0-0.9 0c-0.7 0-1.4 0.1-2 0.2c-0.6 0.2-1.2 0.3-1.7 0.4c-0.2 0.1-0.5 0.2-0.6 0.3c-0.2 0.1-0.4 0.2-0.5 0.3q-0.3 0.2-0.4 0.3z"/>
			<path id="&lt;Path&gt;" class="s0" d="m144 52.6c0 0-0.1-0.4 0.1-1.2c0.2-0.7 0.8-1.6 1.7-2.5c0.9-0.9 2-1.8 3.4-2.5q0.5-0.3 1.1-0.5c0.2-0.1 0.4-0.2 0.7-0.2l0.5-0.1c0.8-0.2 1.7-0.2 2.5-0.2c0.9 0 1.7 0.1 2.5 0.2l0.4 0.1h0.1l0.2 0.1l0.5 0.2c0.4 0.1 0.8 0.3 1.1 0.6q0.6 0.3 1 0.7c0.3 0.3 0.5 0.5 0.8 0.8c0.4 0.6 0.8 1.2 1.1 1.7c0.6 1.1 0.9 2.1 1.2 2.8q0.2 0.6 0.3 1q-0.2-0.3-0.5-1c-0.3-0.6-0.8-1.5-1.5-2.5c-0.3-0.5-0.7-1-1.2-1.5c-0.2-0.2-0.5-0.5-0.7-0.7l-0.4-0.3l-0.5-0.3c-0.3-0.2-0.5-0.4-1-0.5l-0.5-0.1l-0.2-0.1c0 0-0.1 0 0 0l-0.3-0.1c-0.8-0.1-1.6-0.1-2.4-0.1c-0.8 0-1.5-0.1-2.3 0.1l-0.6 0.1c-0.1 0-0.3 0-0.5 0.1q-0.5 0.2-1 0.4c-1.3 0.7-2.5 1.4-3.4 2.2c-0.9 0.8-1.6 1.6-1.9 2.2c-0.1 0.3-0.2 0.6-0.3 0.8q0 0.2 0 0.3z"/>
			<path id="&lt;Path&gt;" class="s0" d="m176.7 67.7q-0.1-0.5-0.1-1.2q0-0.6 0-1.4c0.1-0.5 0.1-1.1 0.2-1.7q0.1-1 0.4-2.1c0.2-0.7 0.5-1.4 0.8-2.2c0.3-0.7 0.7-1.5 1.2-2.2l0.7-1.1l0.9-1l0.2-0.3c0.1-0.1 0.2-0.1 0.3-0.2l0.5-0.4l0.5-0.4l0.6-0.3c0.8-0.5 1.6-0.8 2.4-1c0.8-0.1 1.7-0.2 2.4-0.2q1.1 0.1 2.1 0.4c0.6 0.2 1.2 0.4 1.7 0.7q0.7 0.4 1.1 0.8c0.3 0.2 0.4 0.5 0.5 0.7q0.1 0.2 0.2 0.2q-0.1 0-0.2-0.2c-0.2-0.1-0.3-0.3-0.7-0.5q-0.4-0.4-1.1-0.7q-0.7-0.3-1.6-0.5q-1-0.1-2-0.1c-0.8 0-1.4 0.1-2.2 0.2c-0.7 0.3-1.5 0.5-2.1 0.9l-0.5 0.3l-0.5 0.4l-0.5 0.5c-0.1 0-0.2 0.1-0.2 0.1l-0.2 0.3l-0.9 0.9l-0.7 1c-0.4 0.6-0.8 1.3-1.1 2c-0.3 0.8-0.7 1.4-0.9 2.1q-0.3 1.1-0.5 2c-0.3 1.2-0.5 2.2-0.6 3q-0.1 0.7-0.1 1.2z"/>
			<path id="&lt;Path&gt;" class="s0" d="m204.6 64.6q0-0.2 0-0.7q0-0.3 0.1-0.8q0.1-0.5 0.4-1c0.3-0.8 0.8-1.6 1.5-2.3c0.4-0.3 0.8-0.7 1.2-1c0.4-0.3 0.9-0.5 1.4-0.8c0.5-0.2 0.9-0.4 1.5-0.5c0.5-0.2 1-0.3 1.5-0.3c1-0.2 1.9-0.1 2.7 0.1q0.6 0.1 1 0.3c0.3 0.1 0.6 0.2 0.7 0.4q0.4 0.2 0.6 0.4q-0.2-0.1-0.6-0.3c-0.5-0.1-1.1-0.2-1.8-0.3c-0.7-0.1-1.6 0.1-2.5 0.2q-0.7 0.2-1.4 0.4c-0.4 0.1-0.9 0.3-1.3 0.5c-0.4 0.3-0.9 0.5-1.3 0.7c-0.4 0.3-0.7 0.6-1.1 0.9c-0.3 0.3-0.7 0.6-0.9 0.9c-0.3 0.3-0.6 0.6-0.7 0.9q-0.4 0.5-0.5 0.9q-0.2 0.4-0.3 0.7q-0.2 0.5-0.2 0.7z"/>
			<path id="&lt;Path&gt;" class="s0" d="m243.3 76.4q0-0.2 0-0.5c0-0.3-0.1-0.7 0-1.2c0.1-1.1 0.5-2.5 0.9-4.3q0.3-1.3 0.7-2.8c0.2-1 0.4-2.1 0.7-3.2c0.4-1.1 0.8-2.2 1.3-3.2c0.5-1.2 1.1-2.2 1.7-3.3c0.6-1 1.3-2 2-3c0.8-1 1.7-1.8 2.6-2.4c1-0.7 1.9-1.3 2.9-1.8c0.9-0.4 1.9-0.8 2.8-1c0.9-0.2 1.7-0.3 2.5-0.2c0.7 0 1.4 0.2 1.8 0.5q0.4 0.2 0.6 0.4q0.3 0.2 0.4 0.3q0.2 0.2 0.3 0.3q-0.1-0.1-0.3-0.2q-0.2-0.2-0.4-0.4q-0.3-0.1-0.6-0.2c-0.5-0.2-1.1-0.4-1.8-0.4q-1.1 0.1-2.4 0.5c-1.7 0.5-3.5 1.5-5.2 2.8c-0.9 0.7-1.7 1.5-2.5 2.4c-0.6 0.9-1.3 1.9-1.9 2.9c-0.5 1-1.2 2.1-1.6 3.1c-0.6 1-1 2.1-1.3 3.2c-0.4 1-0.6 2.1-0.9 3.1q-0.5 1.5-0.8 2.8c-0.3 0.8-0.5 1.6-0.8 2.3c-0.2 0.7-0.4 1.3-0.5 1.8c-0.1 0.5-0.1 1-0.1 1.2q-0.1 0.3-0.1 0.5z"/>
			<path id="&lt;Path&gt;" class="s0" d="m275 54.4q0.1-0.2 0.1-0.6q0.1-0.3 0.1-0.7c0-0.2 0.2-0.5 0.3-0.8c0.1-0.3 0.2-0.7 0.4-1c0.2-0.3 0.3-0.7 0.6-1q0.3-0.5 0.7-1c0.4-0.4 0.7-0.6 1-0.9c0.4-0.3 0.6-0.6 1-0.8q0.6-0.3 1.2-0.6c0.4-0.2 0.8-0.2 1.1-0.3q0.6-0.2 1-0.3q1.3-0.2 2.2-0.2q-0.8 0.3-2 0.7q-0.4 0.2-0.9 0.5c-0.3 0.1-0.7 0.2-1 0.4q-0.5 0.3-1 0.6c-0.3 0.1-0.6 0.5-0.9 0.8c-0.3 0.2-0.7 0.5-1 0.7q-0.4 0.5-0.7 0.9q-0.4 0.5-0.7 0.9c-0.3 0.2-0.4 0.5-0.5 0.8c-0.2 0.3-0.4 0.5-0.4 0.7q-0.2 0.4-0.3 0.7q-0.2 0.3-0.3 0.5z"/>
			<path id="&lt;Path&gt;" class="s0" d="m302 42q0.1-0.2 0.2-0.5c0.1-0.4 0.2-1 0.5-1.5q0.3-0.5 0.6-1q0.2-0.5 0.6-1q0.5-0.5 0.9-1c0.3-0.3 0.7-0.6 1-0.9l0.6-0.4l0.6-0.3c0.3-0.2 0.9-0.3 1.3-0.4q0.7-0.1 1.3 0q0.6 0.1 1.1 0.2c0.6 0.2 1.1 0.4 1.5 0.5q0.3 0.1 0.5 0.2c0 0-0.9 0-2.2-0.1q-0.4-0.1-1-0.1q-0.5 0-1 0.2c-0.4 0.1-0.7 0.1-1.1 0.4l-0.5 0.3l-0.5 0.3c-0.3 0.3-0.7 0.5-1 0.8q-0.4 0.4-0.8 0.9q-0.4 0.4-0.8 0.8q-0.3 0.4-0.6 0.8c-0.4 0.5-0.6 1-0.8 1.3q-0.2 0.4-0.4 0.5z"/>
			<path id="&lt;Path&gt;" class="s0" d="m328.4 50q0-0.3 0-0.9c0-0.5-0.1-1.4 0-2.3c0.2-1 0.4-2.1 0.8-3.2q0.4-0.9 0.9-1.7c0.4-0.5 0.7-1.1 1.3-1.5c0.4-0.5 1-0.8 1.5-1.2c0.6-0.3 1.2-0.6 1.8-0.7c0.6-0.3 1.2-0.3 1.7-0.4c0.6 0 1.1 0 1.6 0c1 0.1 1.7 0.3 2.3 0.5q0.5 0.1 0.8 0.2q-0.3 0-0.9 0c-0.5-0.1-1.3-0.1-2.2-0.1c-0.9 0-2 0.2-3 0.6c-0.6 0.1-1 0.5-1.6 0.7c-0.5 0.4-1 0.7-1.4 1.1c-0.4 0.4-0.8 0.9-1.1 1.3c-0.3 0.5-0.6 1-0.9 1.5c-0.5 1.1-0.8 2.1-1 3c-0.2 0.9-0.4 1.7-0.4 2.2q-0.1 0.6-0.2 0.9z"/>
			<path id="&lt;Path&gt;" class="s0" d="m360.3 26.8c0 0 0-0.4 0.1-1c0-0.6 0.3-1.5 0.8-2.4c1-1.9 2.9-4.2 5.3-5.8c0.6-0.4 1.4-0.7 2-0.9c0.6-0.3 1.4-0.4 2-0.5q1.1-0.1 2-0.1c0.6 0 1.2 0 1.7 0.1c0.6 0.2 1.1 0.4 1.4 0.7c0.3 0.3 0.6 0.6 0.8 0.9q0.3 0.5 0.5 0.7q-0.2-0.2-0.7-0.6c-0.4-0.4-1.1-1-2.1-1.1c-0.4-0.1-1-0.1-1.6 0q-0.9 0.1-1.8 0.2c-0.7 0.2-1.2 0.3-1.9 0.6c-0.7 0.2-1.2 0.4-1.8 0.8c-1.1 0.7-2.1 1.7-3.1 2.6c-0.9 0.9-1.7 1.8-2.2 2.6c-0.6 0.9-1 1.7-1.2 2.2c-0.2 0.6-0.2 1-0.2 1z"/>
			<path id="&lt;Path&gt;" class="s0" d="m394 44.6q0-0.1-0.1-0.4c-0.2-0.3-0.4-0.7-0.5-1.3c-0.3-1.1-0.8-2.8-1-4.8c-0.1-1.1-0.1-2.1-0.1-3.3c0-1.2 0-2.4 0.1-3.7c0.2-1.2 0.4-2.5 0.8-3.8c0.3-1.4 0.9-2.6 1.4-3.9c0.6-1.2 1.2-2.5 1.9-3.6q1-1.7 2.3-3.2c0.9-1 1.8-1.8 2.8-2.4c1.1-0.6 2-1.1 3.1-1.4c2-0.5 3.7-0.4 4.9-0.5q1.2 0 1.8 0q-0.6 0.1-1.8 0.2c-1.2 0.2-2.9 0.2-4.8 0.8q-0.6 0.2-1.4 0.6c-0.5 0.2-0.9 0.6-1.4 0.9q-1.3 1-2.5 2.4q-1.2 1.4-2.2 3.1c-0.7 1.1-1.2 2.3-1.8 3.5c-0.5 1.2-1.1 2.5-1.4 3.7c-0.4 1.2-0.6 2.5-0.8 3.7c-0.1 1.2-0.3 2.5-0.3 3.6c0 1.1-0.1 2.3 0 3.2c0.1 2 0.3 3.7 0.5 4.8q0.3 1.2 0.5 1.8z"/>
			<path id="&lt;Path&gt;" class="s0" d="m434.5 22.8q0-0.2 0-0.5q0-0.2 0.2-0.6c0.1-0.2 0.2-0.4 0.4-0.6c0.4-0.5 0.9-1 1.5-1.3c0.6-0.4 1.3-0.7 2-0.9l0.6-0.2h0.1h0.1h0.1l0.3-0.1q0.5 0 1-0.1q0.6 0.1 1.1 0.2c0.3 0 0.6 0.2 0.9 0.3c0.5 0.2 0.8 0.7 1.1 0.9q0.2 0.2 0.3 0.3q-0.2-0.1-0.4-0.2q-0.3-0.1-0.6-0.2c-0.1-0.1-0.4-0.2-0.6-0.3c-0.3 0-0.5-0.1-0.8-0.1q-0.4 0-0.9 0q-0.5 0.1-1 0.2h-0.3c0 0-0.1 0-0.1 0l-0.1 0.1l-0.5 0.1c-0.6 0.2-1.3 0.5-1.9 0.7c-0.6 0.3-1.1 0.6-1.5 0.9c-0.2 0.2-0.3 0.4-0.5 0.5q-0.2 0.2-0.3 0.5q-0.1 0.3-0.2 0.4z"/>
			<path id="&lt;Path&gt;" class="s0" d="m451.4 29.2q0-0.2 0-0.6q0.1-0.3 0.2-0.7c0.1-0.3 0.1-0.6 0.3-0.9c0.1-0.3 0.3-0.7 0.4-1.1c0.2-0.3 0.4-0.7 0.7-1.1c0.4-0.7 1-1.4 1.7-2.1c0.4-0.3 0.8-0.6 1.2-0.8l0.6-0.3q0.4-0.1 0.7-0.2c0.9-0.3 1.8-0.2 2.4-0.2q1.4 0.1 2.3 0.4q-0.9 0.1-2.2 0.2c-0.7 0-1.5 0.2-2.2 0.4l-0.6 0.2l-0.5 0.3c-0.3 0.2-0.7 0.5-1 0.8c-0.7 0.5-1.2 1.2-1.7 1.8c-0.5 0.7-1 1.3-1.3 1.9c-0.2 0.3-0.3 0.6-0.5 0.8q-0.2 0.3-0.3 0.6q-0.1 0.4-0.2 0.6z"/>
			<path id="&lt;Path&gt;" class="s0" d="m494 19.6v1h-0.4l-0.3 0.1h-0.4q-0.7 0.2-1.4 0.4c-0.9 0.3-1.8 0.6-2.5 0.8q-1.5 0.5-2.5 0.8q0.2-0.2 0.6-0.4c0.4-0.2 1-0.5 1.7-0.9c0.3-0.2 0.7-0.4 1.1-0.6q0.6-0.3 1.3-0.5q0.7-0.3 1.5-0.5l0.4-0.1h0.4z"/>
			<path id="&lt;Path&gt;" class="s0" d="m8.5 21.3q-0.3 0-0.7-0.1c-0.5-0.1-1.1-0.1-1.9-0.3c-0.8-0.1-1.6-0.2-2.6-0.3c-0.5-0.1-1-0.1-1.5-0.1c-0.4-0.1-0.9 0-1.4 0l-0.4 0.1v-1l0.3-0.1c0.5 0 1.1 0 1.6 0q0.8 0.1 1.5 0.2c1 0.2 1.9 0.4 2.6 0.7c0.8 0.2 1.4 0.5 1.8 0.6q0.5 0.2 0.7 0.3z"/>
		</g>
	</g>
</svg>