<svg width="31" height="31" viewBox="0 0 31 31" fill="none" xmlns="http://www.w3.org/2000/svg">
<circle cx="15.5" cy="15.5" r="11.5" fill="#FAF0CA"/>
<path d="M15.5 0L17.5689 5.76645L21.8044 1.34004L21.3491 7.44947L27.0187 5.12848L24.1178 10.5245L30.2414 10.7102L25.3965 14.4598L30.9151 17.1202L24.964 18.575L28.9234 23.25L22.895 22.1585L24.6107 28.0398L19.5474 24.5907L18.7226 30.6613L15.5 25.451L12.2774 30.6613L11.4526 24.5907L6.38933 28.0398L8.10497 22.1585L2.07661 23.25L6.03604 18.575L0.0849104 17.1202L5.60351 14.4598L0.758624 10.7102L6.88218 10.5245L3.98126 5.12848L9.65095 7.44947L9.19558 1.34004L13.4311 5.76645L15.5 0Z" fill="#F4D35E"/>
</svg>
